<?xml version="1.0" encoding="utf-8"?>

<!DOCTYPE svg PUBLIC "-//W3C//DTD SVG 1.1//EN" "http://www.w3.org/Graphics/SVG/1.1/DTD/svg11.dtd">
<svg version="1.1" id="Layer_1" xmlns="http://www.w3.org/2000/svg" xmlns:xlink="http://www.w3.org/1999/xlink" x="0px" y="0px"
	 viewBox="0 0 1798.3179 1639.4122" enable-background="new 0 0 1798.3179 1639.4122" xml:space="preserve">
<g>
	<radialGradient id="SVGID_1_" cx="899.1589" cy="819.7061" r="839.7413" gradientUnits="userSpaceOnUse">
		<stop  offset="0" style="stop-color:#FFFFFF"/>
		<stop  offset="0.0205" style="stop-color:#FDF4F4"/>
		<stop  offset="0.1353" style="stop-color:#F0BCBC"/>
		<stop  offset="0.2536" style="stop-color:#E58A8A"/>
		<stop  offset="0.3728" style="stop-color:#DB5F5F"/>
		<stop  offset="0.493" style="stop-color:#D43D3D"/>
		<stop  offset="0.6147" style="stop-color:#CE2222"/>
		<stop  offset="0.7382" style="stop-color:#C90F0F"/>
		<stop  offset="0.865" style="stop-color:#C70404"/>
		<stop  offset="1" style="stop-color:#C60000"/>
	</radialGradient>
	<polygon fill="url(#SVGID_1_)" points="599.7239,65.1961 594.4639,123.1761 621.8439,32.5161 618.9539,93.3761 626.754,80.8861 
		641.174,84.8361 687.744,101.6661 696.8839,95.8961 678.3239,150.4961 727.124,69.2661 709.674,126.9561 719.9039,117.3361 
		762.674,144.5861 773.114,141.4861 742.8939,190.2661 808.424,121.8261 778.364,174.6361 790.874,167.1861 810.6639,185.8361 
		812.934,187.5461 836.0339,213.1061 847.174,212.1261 805.744,253.1061 885.6639,202.1861 844.2839,247.1261 858.5139,242.8061 
		901.674,290.6761 938.564,238.6661 935.564,227.9961 984.8939,257.4061 915.8539,192.4561 969.424,221.2361 961.9539,208.7161 
		981.124,187.4961 982.814,185.2161 1006.5939,162.6061 1005.124,151.6861 1046.834,192.3661 993.8239,113.8561 1039.184,154.5861 
		1034.454,140.6261 1061.2439,122.5561 1089.424,106.7661 1090.8639,96.0561 1120.924,145.2661 1089.844,55.7761 1122.924,106.0661 
		1122.1439,92.1261 1170.6039,76.8161 1174.964,66.8361 1192.834,121.3861 1182.714,27.1561 1203.7439,84.1561 1206.1239,69.7961 
		1233.194,66.7061 1235.8939,66.0661 1268.684,64.8161 1274.7739,55.6561 1279.4139,113.7061 1291.0239,19.7061 1298.594,80.2061 
		1304.1239,66.5161 1368.094,75.1361 1375.714,67.4761 1370.1039,124.8661 1398.714,34.5761 1395.474,94.6961 1403.0439,82.9261 
		1451.564,97.9461 1460.714,92.0661 1445.554,147.3761 1488.834,63.1661 1475.2839,122.3261 1485.074,111.6261 1509.564,123.5561 
		1512.1439,124.5361 1540.4839,141.0661 1550.5339,136.6461 1523.204,187.9861 1583.674,115.1861 1557.324,170.1161 
		1569.3739,161.6761 1585.334,174.4561 1617.464,204.7461 1628.1239,203.0461 1589.7339,245.9861 1666.3639,190.3961 
		1627.804,236.6461 1640.934,231.8261 1645.844,238.0761 1669.834,273.6261 1680.6639,274.8161 1633.8939,308.1161 
		1720.844,270.3761 1672.684,307.4761 1687.1039,305.4461 1698.1539,330.3461 1699.5439,332.7461 1710.574,363.6461 
		1721.194,366.6861 1667.174,388.5461 1760.314,371.4261 1704.8539,396.7761 1719.564,397.9661 1720.194,400.6661 
		1729.6439,461.7261 1738.9939,467.0361 1682.2439,476.8461 1776.844,480.6661 1718.0139,493.2461 1731.324,497.5161 
		1729.194,548.2761 1737.1239,555.6061 1679.7639,555.1161 1772.344,575.2861 1711.6539,577.5061 1724.6139,584.1661 
		1719.574,610.9261 1719.3839,613.6861 1711.6539,645.5361 1718.9039,653.7761 1661.6239,643.4461 1749.6239,678.3461 
		1689.194,670.6961 1701.1339,679.3961 1678.3539,739.7561 1684.194,748.7861 1629.2439,731.4961 1711.824,777.8061 
		1653.594,762.7061 1663.704,772.4161 1640.704,817.6561 1645.2439,827.5061 1592.424,805.1661 1670.5039,858.7261 
		1613.4139,838.2861 1623.0039,849.1761 1608.9839,872.4861 1607.8739,875.0161 1590.304,902.6461 1594.6539,912.6861 
		1543.1439,885.4561 1616.7339,945.1261 1561.204,919.9961 1570.1339,931.7661 1532.2439,983.9361 1535.714,994.1061 
		1486.454,964.1661 1555.824,1028.6761 1502.674,1000.4461 1510.314,1012.1961 1478.2439,1051.5161 1480.7339,1062.056 
		1433.2839,1029.7561 1499.5239,1097.4661 1447.3939,1066.4761 1454.7739,1078.9761 1436.7939,1099.3761 1435.2539,1101.6661 
		1413.2539,1125.8961 1415.974,1136.5361 1369.464,1101.4261 1432.6639,1171.936 1381.7839,1138.4961 1388.804,1151.4961 
		1343.824,1197.6761 1345.934,1208.2261 1301.0439,1172.066 1361.3839,1245.0461 1312.334,1210.2161 1318.424,1222.8461 
		1281.844,1257.9861 1283.1239,1268.7461 1239.6339,1231.2861 1297.8539,1305.9961 1249.4839,1269.4061 1255.474,1282.6661 
		1235.434,1301.0361 1233.6639,1303.1561 1209.334,1325.0261 1210.974,1335.8561 1168.094,1296.4261 1224.2739,1372.7061 
		1176.7639,1334.556 1182.5339,1348.1561 1133.6639,1390.1761 1134.8839,1400.8661 1093.1339,1361.066 1147.2439,1438.806 
		1101.224,1400.076 1106.2739,1413.1661 1067.074,1445.3461 1067.5439,1456.1561 1026.944,1415.5861 1079.5139,1494.3661 
		1033.934,1454.3561 1038.954,1468.0161 1017.674,1484.9161 1015.7139,1486.9561 988.6639,1508.1361 989.3539,1519.2261 
		948.924,1477.2361 999.6539,1557.2761 954.314,1516.446 959.0239,1530.5361 904.494,1571.7961 899.5939,1586.6261 
		897.4039,1559.1261 897.934,1516.076 890.5939,1570.6161 881.624,1604.946 876.4839,1619.7061 877.3239,1582.4761 
		880.924,1559.2861 883.374,1549.3961 879.0739,1554.4561 874.2639,1559.1161 832.624,1525.576 821.8939,1528.066 
		852.8939,1479.7261 786.4739,1547.316 815.6539,1494.0461 803.194,1501.6661 781.114,1483.5861 778.7039,1482.1061 
		753.5339,1461.326 743.0839,1464.5961 775.564,1416.2361 708.7639,1483.3761 739.184,1430.6061 726.6439,1438.4261 
		677.5139,1396.8961 667.184,1399.816 699.7139,1352.196 631.7939,1418.2161 662.5339,1366.5261 650.4639,1373.6361 
		612.3339,1340.3461 601.7739,1342.576 635.0839,1295.8461 566.0739,1360.7461 598.0239,1309.186 585.4039,1316.3861 
		565.254,1298.2261 562.9739,1296.6661 538.8839,1274.6261 528.2639,1277.3461 563.314,1230.816 492.9439,1294.1761 
		526.254,1243.196 513.2839,1250.2961 466.8139,1205.7961 456.304,1208.0261 491.9539,1162.7261 419.6839,1223.9561 
		453.9539,1174.4961 441.394,1180.7361 405.8839,1144.6661 395.144,1146.066 432.1639,1102.196 358.054,1161.1761 
		394.1839,1112.4761 381.0039,1118.576 362.5339,1098.696 360.4139,1096.936 338.524,1072.696 327.674,1074.3461 
		367.2439,1031.5861 290.774,1087.436 329.174,1040.1761 315.5339,1045.8561 274.4539,996.3261 263.7339,997.2361 
		304.8539,956.7761 225.3339,1008.2561 265.7239,963.6761 252.4739,968.1961 222.4339,927.4261 211.5939,927.1661 
		254.9339,889.5661 172.5139,936.1961 215.9239,893.8761 201.9439,897.7361 187.1239,874.9961 185.3339,872.8861 168.2339,845.0361 
		157.3139,844.5261 204.5039,810.3861 118.3939,849.9061 165.6439,811.3661 151.1139,814.0961 122.3139,756.5161 111.7139,754.7061 
		161.7339,725.9961 71.6239,755.3261 122.3239,722.8161 108.3439,723.6261 91.3039,675.9061 81.1039,672.2661 134.0439,650.3161 
		41.0539,668.0661 95.9039,642.1861 81.4339,641.1761 75.4439,614.6661 74.5139,612.0661 69.1739,579.7761 59.2439,574.9961 
		116.1439,562.5361 21.4739,563.8861 80.3339,548.0961 66.0339,544.5161 66.0739,480.0861 57.6939,473.4161 115.3239,472.4861 
		22.3639,454.1461 82.5139,450.8161 69.9439,444.5361 80.0839,394.8661 73.2739,386.3661 129.8939,395.8261 41.6539,361.4561 
		101.8739,368.7861 90.2039,360.1961 99.3839,334.6161 100.0039,331.9161 113.2139,301.9561 107.5339,292.4661 161.8839,313.5961 
		82.3139,262.2061 140.0539,281.8361 130.1739,270.8761 144.0439,248.6161 166.8539,217.8961 163.8339,207.5661 211.2439,240.1961 
		146.4039,171.2661 197.1239,203.6161 190.7039,191.2461 199.0139,182.9061 228.4439,157.3661 228.2839,146.4961 267.084,188.6961 
		218.8839,107.2161 261.5939,150.3561 257.834,136.3561 281.1239,122.3161 283.3539,120.6761 312.6839,106.1061 314.5139,95.2661 
		342.2939,146.3761 314.8239,55.8161 346.1639,108.0761 345.7239,93.3561 376.5039,83.7761 407.8739,76.3961 412.1039,66.4961 
		428.144,121.7861 421.3739,27.3861 440.4539,84.4361 443.1839,70.7461 493.7339,66.9661 500.0339,58.1461 506.5339,115.1361 
		515.244,20.8761 524.8239,80.7861 529.8439,67.1861 556.9739,68.9561 559.7339,68.7961 592.194,73.1361 	"/>
	<g>
		
			<polyline fill="none" stroke="#FF0000" stroke-width="7" stroke-linecap="round" stroke-linejoin="round" stroke-miterlimit="10" points="
			810.6624,185.8319 790.8724,167.1819 778.3624,174.6319 808.4224,121.8219 742.8923,190.2619 773.1124,141.4819 
			762.6724,144.5819 719.9023,117.3319 709.6724,126.9519 727.1224,69.2619 678.3224,150.4919 696.8824,95.8919 687.7424,101.6619 
			641.1724,84.8319 626.7524,80.8819 618.9523,93.3719 621.8423,32.5119 594.4623,123.1719 599.7224,65.1919 592.1924,73.1319 
			559.7324,68.7919 		"/>
		
			<polyline fill="none" stroke="#FF0000" stroke-width="7" stroke-linecap="round" stroke-linejoin="round" stroke-miterlimit="10" points="
			556.9724,68.9519 529.8423,67.1819 524.8224,80.7819 515.2424,20.8719 506.5323,115.1319 500.0323,58.1419 493.7324,66.9619 
			443.1824,70.7419 440.4524,84.4319 421.3723,27.3819 428.1424,121.7819 412.1024,66.4919 407.8723,76.3919 376.5023,83.7719 
			345.7224,93.3519 346.1624,108.0719 314.8224,55.8119 342.2924,146.3719 314.5124,95.2619 312.6824,106.1019 283.3524,120.6719 		
			"/>
		
			<polyline fill="none" stroke="#FF0000" stroke-width="7" stroke-linecap="round" stroke-linejoin="round" stroke-miterlimit="10" points="
			281.1223,122.3119 257.8324,136.3519 261.5923,150.3519 218.8824,107.2119 267.0824,188.6919 228.2824,146.4919 
			228.4424,157.3619 199.0124,182.9019 190.7024,191.2419 197.1224,203.6119 146.4024,171.2619 211.2424,240.1919 
			163.8324,207.5619 166.8524,217.8919 144.0424,248.6119 130.1724,270.8719 140.0524,281.8319 82.3124,262.2019 161.8824,313.5919 
			107.5324,292.4619 113.2124,301.9519 100.0024,331.9119 		"/>
		
			<polyline fill="none" stroke="#FF0000" stroke-width="7" stroke-linecap="round" stroke-linejoin="round" stroke-miterlimit="10" points="
			99.3824,334.6119 90.2024,360.1919 101.8724,368.7819 41.6524,361.4519 129.8924,395.8219 73.2724,386.3619 80.0824,394.8619 
			69.9424,444.5319 82.5124,450.8119 22.3624,454.1419 115.3224,472.4819 57.6924,473.4119 66.0724,480.0819 66.0324,544.5119 
			80.3324,548.0919 21.4724,563.8819 116.1424,562.5319 59.2424,574.9919 69.1724,579.7719 74.5124,612.0619 		"/>
		
			<polyline fill="none" stroke="#FF0000" stroke-width="7" stroke-linecap="round" stroke-linejoin="round" stroke-miterlimit="10" points="
			75.4424,614.6619 81.4324,641.1719 95.9024,642.1819 41.0524,668.0619 134.0424,650.3119 81.1024,672.2619 91.3024,675.9019 
			108.3424,723.6219 122.3224,722.8119 71.6224,755.3219 161.7324,725.9919 111.7124,754.7019 122.3124,756.5119 151.1124,814.0919 
			165.6424,811.3619 118.3924,849.9019 204.5024,810.3819 157.3124,844.5219 168.2324,845.0319 185.3324,872.8819 		"/>
		
			<polyline fill="none" stroke="#FF0000" stroke-width="7" stroke-linecap="round" stroke-linejoin="round" stroke-miterlimit="10" points="
			187.1224,874.9919 201.9424,897.7319 215.9224,893.8719 172.5124,936.1919 254.9324,889.5619 211.5924,927.1619 
			222.4324,927.4219 252.4724,968.1919 265.7224,963.6719 225.3324,1008.2519 304.8524,956.7719 263.7324,997.2319 
			274.4524,996.3219 315.5323,1045.8519 329.1724,1040.1719 290.7724,1087.4319 367.2424,1031.5819 327.6724,1074.3419 
			338.5224,1072.6919 360.4124,1096.9319 		"/>
		
			<polyline fill="none" stroke="#FF0000" stroke-width="7" stroke-linecap="round" stroke-linejoin="round" stroke-miterlimit="10" points="
			362.5323,1098.6919 381.0023,1118.5719 394.1824,1112.4719 358.0524,1161.1719 432.1624,1102.1919 395.1424,1146.0619 
			405.8824,1144.6619 441.3924,1180.7319 453.9524,1174.4919 419.6824,1223.9519 491.9524,1162.7219 456.3024,1208.022 
			466.8123,1205.7919 513.2823,1250.2919 526.2524,1243.1919 492.9424,1294.1719 563.3124,1230.8119 528.2624,1277.3419 
			538.8824,1274.6219 562.9724,1296.6619 		"/>
		
			<polyline fill="none" stroke="#FF0000" stroke-width="7" stroke-linecap="round" stroke-linejoin="round" stroke-miterlimit="10" points="
			565.2524,1298.2219 585.4023,1316.382 598.0223,1309.1819 566.0724,1360.7419 635.0823,1295.8419 601.7723,1342.5719 
			612.3323,1340.3419 650.4623,1373.632 662.5323,1366.522 631.7924,1418.2119 699.7123,1352.1919 667.1824,1399.8119 
			677.5124,1396.892 726.6423,1438.4219 739.1824,1430.6019 708.7624,1483.3719 775.5624,1416.2319 743.0823,1464.5919 
			753.5323,1461.3219 778.7023,1482.1019 		"/>
		
			<polyline fill="none" stroke="#FF0000" stroke-width="7" stroke-linecap="round" stroke-linejoin="round" stroke-miterlimit="10" points="
			781.1124,1483.5819 803.1924,1501.6619 815.6523,1494.0419 786.4724,1547.3119 852.8923,1479.7219 821.8923,1528.0619 
			832.6224,1525.5719 874.2624,1559.1119 879.0724,1554.4519 883.3724,1549.392 880.9224,1559.2819 877.3224,1582.4719 
			876.4824,1619.7019 881.6224,1604.9419 890.5923,1570.6119 897.9324,1516.0719 897.4023,1559.1219 899.5923,1586.6219 
			904.4924,1571.7919 959.0223,1530.5319 954.3124,1516.4419 999.6523,1557.272 948.9224,1477.2319 989.3524,1519.2219 
			988.6624,1508.132 1015.7123,1486.9519 		"/>
		
			<polyline fill="none" stroke="#FF0000" stroke-width="7" stroke-linecap="round" stroke-linejoin="round" stroke-miterlimit="10" points="
			1017.6724,1484.9119 1038.9524,1468.012 1033.9324,1454.3519 1079.5123,1494.3619 1026.9424,1415.5819 1067.5424,1456.152 
			1067.0724,1445.3419 1106.2723,1413.1619 1101.2224,1400.0719 1147.2423,1438.8019 1093.1323,1361.0619 1134.8823,1400.8619 
			1133.6624,1390.1719 1182.5323,1348.152 1176.7623,1334.5519 1224.2723,1372.7019 1168.0924,1296.4219 1210.9724,1335.8519 
			1209.3324,1325.022 1233.6624,1303.152 		"/>
		
			<polyline fill="none" stroke="#FF0000" stroke-width="7" stroke-linecap="round" stroke-linejoin="round" stroke-miterlimit="10" points="
			1235.4324,1301.0319 1255.4724,1282.6619 1249.4823,1269.402 1297.8524,1305.9919 1239.6323,1231.2819 1283.1223,1268.7419 
			1281.8424,1257.9819 1318.4224,1222.8419 1312.3324,1210.2119 1361.3823,1245.0419 1301.0424,1172.0619 1345.9324,1208.2219 
			1343.8224,1197.6719 1388.8024,1151.4919 1381.7823,1138.4919 1432.6624,1171.9319 1369.4624,1101.4219 1415.9724,1136.5319 
			1413.2523,1125.892 1435.2523,1101.6619 		"/>
		
			<polyline fill="none" stroke="#FF0000" stroke-width="7" stroke-linecap="round" stroke-linejoin="round" stroke-miterlimit="10" points="
			1436.7924,1099.3719 1454.7723,1078.9719 1447.3923,1066.4719 1499.5223,1097.4619 1433.2823,1029.752 1480.7323,1062.0519 
			1478.2423,1051.512 1510.3124,1012.1919 1502.6724,1000.4419 1555.8224,1028.6719 1486.4524,964.1619 1535.7124,994.1019 
			1532.2423,983.9319 1570.1323,931.7619 1561.2024,919.9919 1616.7323,945.1219 1543.1423,885.4519 1594.6523,912.6819 
			1590.3024,902.6419 1607.8723,875.0119 		"/>
		
			<polyline fill="none" stroke="#FF0000" stroke-width="7" stroke-linecap="round" stroke-linejoin="round" stroke-miterlimit="10" points="
			1608.9823,872.4819 1623.0023,849.1719 1613.4124,838.2819 1670.5023,858.7219 1592.4224,805.1619 1645.2423,827.5019 
			1640.7024,817.6519 1663.7024,772.4119 1653.5924,762.7019 1711.8224,777.8019 1629.2423,731.4919 1684.1924,748.7819 
			1678.3524,739.7519 1701.1323,679.3919 1689.1924,670.6919 1749.6223,678.3419 1661.6223,643.4419 1718.9023,653.7719 
			1711.6523,645.5319 1719.3823,613.6819 		"/>
		
			<polyline fill="none" stroke="#FF0000" stroke-width="7" stroke-linecap="round" stroke-linejoin="round" stroke-miterlimit="10" points="
			1719.5724,610.9219 1724.6123,584.1619 1711.6523,577.5019 1772.3424,575.2819 1679.7623,555.1119 1737.1223,555.6019 
			1729.1924,548.2719 1731.3224,497.5119 1718.0123,493.2419 1776.8424,480.6619 1682.2423,476.8419 1738.9923,467.0319 
			1729.6423,461.7219 1720.1924,400.6619 1719.5624,397.9619 1704.8524,396.7719 1760.3124,371.4219 1667.1724,388.5419 
			1721.1924,366.6819 1710.5724,363.6419 1699.5424,332.7419 		"/>
		
			<polyline fill="none" stroke="#FF0000" stroke-width="7" stroke-linecap="round" stroke-linejoin="round" stroke-miterlimit="10" points="
			1698.1523,330.3419 1687.1024,305.4419 1672.6824,307.4719 1720.8424,270.3719 1633.8923,308.1119 1680.6624,274.8119 
			1669.8324,273.6219 1645.8424,238.0719 1640.9324,231.8219 1627.8024,236.6419 1666.3623,190.3919 1589.7323,245.9819 
			1628.1223,203.0419 1617.4624,204.7419 1585.3324,174.4519 1569.3723,161.6719 1557.3224,170.1119 1583.6724,115.1819 
			1523.2024,187.9819 1550.5323,136.6419 1540.4823,141.0619 1512.1423,124.5319 		"/>
		
			<polyline fill="none" stroke="#FF0000" stroke-width="7" stroke-linecap="round" stroke-linejoin="round" stroke-miterlimit="10" points="
			1509.5624,123.5519 1485.0724,111.6219 1475.2823,122.3219 1488.8324,63.1619 1445.5524,147.3719 1460.7124,92.0619 
			1451.5624,97.9419 1403.0424,82.9219 1395.4724,94.6919 1398.7124,34.5719 1370.1024,124.8619 1375.7124,67.4719 
			1368.0924,75.1319 1304.1223,66.5119 1298.5924,80.2019 1291.0223,19.7019 1279.4124,113.7019 1274.7723,55.6519 
			1268.6824,64.8119 1235.8923,66.0619 		"/>
		
			<polyline fill="none" stroke="#FF0000" stroke-width="7" stroke-linecap="round" stroke-linejoin="round" stroke-miterlimit="10" points="
			1233.1924,66.7019 1206.1223,69.7919 1203.7423,84.1519 1182.7124,27.1519 1192.8324,121.3819 1174.9624,66.8319 
			1170.6024,76.8119 1122.1423,92.1219 1122.9224,106.0619 1089.8424,55.7719 1120.9224,145.2619 1090.8623,96.0519 
			1089.4224,106.7619 1061.2423,122.5519 1034.4524,140.6219 1039.1824,154.5819 993.8224,113.8519 1046.8324,192.3619 
			1005.1224,151.6819 1006.5923,162.6019 982.8124,185.2119 		"/>
		
			<polyline fill="none" stroke="#FF0000" stroke-width="7" stroke-linecap="round" stroke-linejoin="round" stroke-miterlimit="10" points="
			981.1224,187.4919 961.9523,208.7119 969.4224,221.2319 915.8524,192.4519 984.8923,257.4019 935.5624,227.9919 
			938.5624,238.6619 901.6724,290.6719 858.5124,242.8019 844.2823,247.1219 885.6624,202.1819 805.7424,253.1019 
			847.1724,212.1219 836.0323,213.1019 812.9324,187.5419 		"/>
	</g>
</g>
</svg>
